<svg width="600" height="400" viewBox="0 0 600 400" xmlns="http://www.w3.org/2000/svg">
<rect x="0" y="0" width="600" height="400" fill="#FFFFFF"/>
<text font-size="18" x="278" y="5" dy="15" font-weight="bold" dominant-baseline="middle" font-family="Roboto" fill="#464646">
Sizes
</text>
<path d="M300,169.5 L300,111.6 A8 8 0 0 1 304,103.7 A113.9 113.9 0 0 1 339.9,110.8 A8 8 0 0 1 340.5,119.7 L318.4,173.2 A8 8 0 0 1 314,180 A40 40 0 0 0 301.4,177.5 A8 8 0 0 1 300,169.5 Z" fill="#5470C6"/>
<path d="M322.2,105.8 C324.6 94, 326.4 66.9, 331.6 58.6 C333.8 55.1, 346.6 58.6, 351.6 58.6" stroke-width="1" fill="none" stroke="#5470C6"/>
<text font-size="14" x="354.6" y="63.6" font-family="Roboto" fill="#464646">
.rustup: 24%
</text>
<path d="M316.1,178.7 L314.9,181.5 A2 2 0 0 1 317,180.2 A41 41 0 0 1 328,187.5 A2 2 0 0 1 327.6,189.9 L329.7,187.8 A2 2 0 0 1 327.3,188.2 A40 40 0 0 0 316.6,181.1 A2 2 0 0 1 316.1,178.7 Z" fill="#91CC75"/>
<path d="M322.8,183.4 C339.6 158.3, 371.3 104.4, 390 82.8 C393.1 79.2, 405 82.8, 410 82.8" stroke-width="1" fill="none" stroke="#91CC75"/>
<text font-size="14" x="413" y="87.8" font-family="Roboto" fill="#464646">
.motd_shown: 0%
</text>
<path d="M329.7,187.8 L327.6,189.9 A2 2 0 0 1 330,189.5 A41 41 0 0 1 337.3,200.5 A2 2 0 0 1 336,202.6 L338.8,201.4 A2 2 0 0 1 336.4,200.9 A40 40 0 0 0 329.3,190.2 A2 2 0 0 1 329.7,187.8 Z" fill="#FAC858"/>
<path d="M334.1,194.7 C359.2 177.9, 408.8 141.9, 434.7 127.5 C439 125.1, 449.7 127.5, 454.7 127.5" stroke-width="1" fill="none" stroke="#FAC858"/>
<text font-size="14" x="457.7" y="132.5" font-family="Roboto" fill="#464646">
.bash_history: 0%
</text>
<path d="M344.3,199.1 L375.5,186.2 A8 8 0 0 1 384.1,186.1 A89.8 89.8 0 0 1 389.7,214.4 A8 8 0 0 1 381.8,217.5 L348,217.5 A8 8 0 0 1 340,216.1 A40 40 0 0 0 337.5,203.5 A8 8 0 0 1 344.3,199.1 Z" fill="#EE6666"/>
<path d="M388,200 C405.8 196.5, 441.1 188.7, 458.9 185.9 C463.8 185.1, 473.9 185.9, 478.9 185.9" stroke-width="1" fill="none" stroke="#EE6666"/>
<text font-size="14" x="481.9" y="190.9" font-family="Roboto" fill="#464646">
.vscode-server: 16.1%
</text>
<path d="M348,217.5 L434,217.5 A8 8 0 0 1 441.9,222.5 A142 142 0 0 1 433,267.2 A8 8 0 0 1 423.8,268.8 L344.3,235.9 A8 8 0 0 1 337.5,231.5 A40 40 0 0 0 340,218.9 A8 8 0 0 1 348,217.5 Z" fill="#73C0DE"/>
<path d="M439.3,245.2 C444.2 246.2, 453.9 248.6, 458.9 249.1 C463.8 249.6, 473.9 249.1, 478.9 249.1" stroke-width="1" fill="none" stroke="#73C0DE"/>
<text font-size="14" x="481.9" y="254.1" font-family="Roboto" fill="#464646">
Project: 33.1%
</text>
<path d="M338.8,233.6 L336,232.4 A2 2 0 0 1 337.3,234.5 A41 41 0 0 1 330,245.5 A2 2 0 0 1 327.6,245.1 L329.7,247.2 A2 2 0 0 1 329.3,244.8 A40 40 0 0 0 336.4,234.1 A2 2 0 0 1 338.8,233.6 Z" fill="#3BA272"/>
<path d="M334.1,240.3 C359.2 257.1, 408.8 293.1, 434.7 307.5 C439 309.9, 449.7 307.5, 454.7 307.5" stroke-width="1" fill="none" stroke="#3BA272"/>
<text font-size="14" x="457.7" y="312.5" font-family="Roboto" fill="#464646">
Cargo.lock: 0%
</text>
<path d="M329.7,247.2 L327.6,245.1 A2 2 0 0 1 328,247.5 A41 41 0 0 1 317,254.8 A2 2 0 0 1 314.9,253.5 L316.1,256.3 A2 2 0 0 1 316.6,253.9 A40 40 0 0 0 327.3,246.8 A2 2 0 0 1 329.7,247.2 Z" fill="#FC8452"/>
<path d="M322.8,251.6 C339.6 276.7, 371.3 330.6, 390 352.2 C393.1 355.8, 405 352.2, 410 352.2" stroke-width="1" fill="none" stroke="#FC8452"/>
<text font-size="14" x="413" y="357.2" font-family="Roboto" fill="#464646">
testdisk.log: 0%
</text>
<path d="M316.1,256.3 L314.9,253.5 A2 2 0 0 1 314.4,255.9 A41 41 0 0 1 301.4,258.5 A2 2 0 0 1 300,256.5 L300,259.5 A2 2 0 0 1 301.4,257.5 A40 40 0 0 0 314,255 A2 2 0 0 1 316.1,256.3 Z" fill="#9A60B4"/>
<path d="M308,257.7 C313.9 287.4, 322.2 350.9, 331.6 376.4 C333.2 380.6, 346.6 376.4, 351.6 376.4" stroke-width="1" fill="none" stroke="#9A60B4"/>
<text font-size="14" x="354.6" y="381.4" font-family="Roboto" fill="#464646">
.cache: 0%
</text>
<path d="M300,259.5 L300,256.5 A2 2 0 0 1 298.6,258.5 A41 41 0 0 1 285.6,255.9 A2 2 0 0 1 285.1,253.5 L283.9,256.3 A2 2 0 0 1 286,255 A40 40 0 0 0 298.6,257.5 A2 2 0 0 1 300,259.5 Z" fill="#EA7CCC"/>
<path d="M292,257.7 C286.1 287.4, 277.8 350.9, 268.4 376.4 C266.8 380.6, 253.4 376.4, 248.4 376.4" stroke-width="1" fill="none" stroke="#EA7CCC"/>
<text font-size="14" x="176.4" y="381.4" font-family="Roboto" fill="#464646">
.profile: 0%
</text>
<path d="M281.6,261.8 L280.1,265.5 A8 8 0 0 1 275.1,272 A59.9 59.9 0 0 1 259.1,261.3 A8 8 0 0 1 263.3,254.2 L266.1,251.4 A8 8 0 0 1 272.7,246.8 A40 40 0 0 0 283.4,253.9 A8 8 0 0 1 281.6,261.8 Z" fill="#5470C6"/>
<path d="M266.7,267.3 C252.5 288.6, 226 334.5, 210 352.2 C206.9 355.7, 195 352.2, 190 352.2" stroke-width="1" fill="none" stroke="#5470C6"/>
<text font-size="14" x="111" y="357.2" font-family="Roboto" fill="#464646">
.cargo: 6.5%
</text>
<path d="M270.3,247.2 L272.4,245.1 A2 2 0 0 1 270,245.5 A41 41 0 0 1 262.7,234.5 A2 2 0 0 1 264,232.4 L261.2,233.6 A2 2 0 0 1 263.6,234.1 A40 40 0 0 0 270.7,244.8 A2 2 0 0 1 270.3,247.2 Z" fill="#91CC75"/>
<path d="M265.9,240.3 C240.8 257.1, 191.2 293.1, 165.3 307.5 C161 309.9, 150.3 307.5, 145.3 307.5" stroke-width="1" fill="none" stroke="#91CC75"/>
<text font-size="14" x="46.3" y="312.5" font-family="Roboto" fill="#464646">
Cargo.toml: 0%
</text>
<path d="M255.7,235.9 L212.5,253.7 A8 8 0 0 1 203.8,253.5 A102.7 102.7 0 0 1 197.4,221.1 A8 8 0 0 1 205.3,217.5 L252,217.5 A8 8 0 0 1 260,218.9 A40 40 0 0 0 262.5,231.5 A8 8 0 0 1 255.7,235.9 Z" fill="#FAC858"/>
<path d="M199.3,237.5 C184.7 240.4, 155.7 246.9, 141.1 249.1 C136.2 249.8, 126.1 249.1, 121.1 249.1" stroke-width="1" fill="none" stroke="#FAC858"/>
<text font-size="14" x="36.1" y="254.1" font-family="Roboto" fill="#464646">
target: 20.3%
</text>
<path d="M258,217.5 L261,217.5 A2 2 0 0 1 259,216.1 A41 41 0 0 1 261.6,203.1 A2 2 0 0 1 264,202.6 L261.2,201.4 A2 2 0 0 1 262.5,203.5 A40 40 0 0 0 260,216.1 A2 2 0 0 1 258,217.5 Z" fill="#EE6666"/>
<path d="M259.8,209.5 C230.1 203.6, 170.9 191, 141.1 185.9 C136.2 185.1, 126.1 185.9, 121.1 185.9" stroke-width="1" fill="none" stroke="#EE6666"/>
<text font-size="14" x="45.1" y="190.9" font-family="Roboto" fill="#464646">
Testing: 0%
</text>
<path d="M261.2,201.4 L264,202.6 A2 2 0 0 1 262.7,200.5 A41 41 0 0 1 270,189.5 A2 2 0 0 1 272.4,189.9 L270.3,187.8 A2 2 0 0 1 270.7,190.2 A40 40 0 0 0 263.6,200.9 A2 2 0 0 1 261.2,201.4 Z" fill="#73C0DE"/>
<path d="M265.9,194.7 C240.8 177.9, 191.2 141.9, 165.3 127.5 C161 125.1, 150.3 127.5, 145.3 127.5" stroke-width="1" fill="none" stroke="#73C0DE"/>
<text font-size="14" x="50.3" y="132.5" font-family="Roboto" fill="#464646">
.wget-hsts: 0%
</text>
<path d="M270.3,187.8 L272.4,189.9 A2 2 0 0 1 272,187.5 A41 41 0 0 1 283,180.2 A2 2 0 0 1 285.1,181.5 L283.9,178.7 A2 2 0 0 1 283.4,181.1 A40 40 0 0 0 272.7,188.2 A2 2 0 0 1 270.3,187.8 Z" fill="#3BA272"/>
<path d="M277.2,183.4 C260.4 158.3, 228.7 104.4, 210 82.8 C206.9 79.2, 195 82.8, 190 82.8" stroke-width="1" fill="none" stroke="#3BA272"/>
<text font-size="14" x="114" y="87.8" font-family="Roboto" fill="#464646">
main.rs: 0%
</text>
<path d="M283.9,178.7 L285.1,181.5 A2 2 0 0 1 285.6,179.1 A41 41 0 0 1 298.6,176.5 A2 2 0 0 1 300,178.5 L300,175.5 A2 2 0 0 1 298.6,177.5 A40 40 0 0 0 286,180 A2 2 0 0 1 283.9,178.7 Z" fill="#FC8452"/>
<path d="M292,177.3 C286.1 147.6, 277.8 84.1, 268.4 58.6 C266.8 54.4, 253.4 58.6, 248.4 58.6" stroke-width="1" fill="none" stroke="#FC8452"/>
<text font-size="14" x="35.4" y="63.6" font-family="Roboto" fill="#464646">
.sudo_as_admin_successful: 0%
</text>
</svg>